ffmpeg version 7.1.1-essentials_build-www.gyan.dev Copyright (c) 2000-2025 the FFmpeg developers
  built with gcc 14.2.0 (Rev1, Built by MSYS2 project)
  configuration: --enable-gpl --enable-version3 --enable-static --disable-w32threads --disable-autodetect --enable-fontconfig --enable-iconv --enable-gnutls --enable-libxml2 --enable-gmp --enable-bzlib --enable-lzma --enable-zlib --enable-libsrt --enable-libssh --enable-libzmq --enable-avisynth --enable-sdl2 --enable-libwebp --enable-libx264 --enable-libx265 --enable-libxvid --enable-libaom --enable-libopenjpeg --enable-libvpx --enable-mediafoundation --enable-libass --enable-libfreetype --enable-libfribidi --enable-libharfbuzz --enable-libvidstab --enable-libvmaf --enable-libzimg --enable-amf --enable-cuda-llvm --enable-cuvid --enable-dxva2 --enable-d3d11va --enable-d3d12va --enable-ffnvcodec --enable-libvpl --enable-nvdec --enable-nvenc --enable-vaapi --enable-libgme --enable-libopenmpt --enable-libopencore-amrwb --enable-libmp3lame --enable-libtheora --enable-libvo-amrwbenc --enable-libgsm --enable-libopencore-amrnb --enable-libopus --enable-libspeex --enable-libvorbis --enable-librubberband
  libavutil      59. 39.100 / 59. 39.100
  libavcodec     61. 19.101 / 61. 19.101
  libavformat    61.  7.100 / 61.  7.100
  libavdevice    61.  3.100 / 61.  3.100
  libavfilter    10.  4.100 / 10.  4.100
  libswscale      8.  3.100 /  8.  3.100
  libswresample   5.  3.100 /  5.  3.100
  libpostproc    58.  3.100 / 58.  3.100
Input #0, rtsp, from 'rtsp://170.93.143.139/rtplive/470011e600ef003a004ee33696235daa':
  Metadata:
    title           : redbutton.stream
  Duration: N/A, start: 0.667000, bitrate: N/A
  Stream #0:0: Video: h264 (Constrained Baseline), yuv420p(progressive), 352x240 [SAR 1:1 DAR 22:15], 15 fps, 15 tbr, 90k tbn
[out#0/hls @ 0000018bac71f780] Codec AVOption b:a (set bitrate (in bits/s)) has not been used for any stream. The most likely reason is either wrong type (e.g. a video option with no video streams) or that it is a private option of some decoder which was not actually used for any stream.
Stream mapping:
  Stream #0:0 -> #0:0 (h264 (native) -> h264 (libx264))
Press [q] to stop, [?] for help
[libx264 @ 0000018bac71b580] using SAR=1/1
[libx264 @ 0000018bac71b580] using cpu capabilities: MMX2 SSE2Fast SSSE3 SSE4.2 AVX FMA3 BMI2 AVX2
[libx264 @ 0000018bac71b580] profile High, level 1.2, 4:2:0, 8-bit
[libx264 @ 0000018bac71b580] 264 - core 164 r3204 373697b - H.264/MPEG-4 AVC codec - Copyleft 2003-2025 - http://www.videolan.org/x264.html - options: cabac=1 ref=1 deblock=1:0:0 analyse=0x3:0x113 me=hex subme=2 psy=1 psy_rd=1.00:0.00 mixed_ref=0 me_range=16 chroma_me=1 trellis=0 8x8dct=1 cqm=0 deadzone=21,11 fast_pskip=1 chroma_qp_offset=0 threads=3 lookahead_threads=3 sliced_threads=1 slices=3 nr=0 decimate=1 interlaced=0 bluray_compat=0 constrained_intra=0 bframes=0 weightp=1 keyint=30 keyint_min=16 scenecut=0 intra_refresh=0 rc=crf mbtree=0 crf=23.0 qcomp=0.60 qpmin=0 qpmax=69 qpstep=4 ip_ratio=1.40 aq=1:1.00
Output #0, hls, to 'C:\Users\athee\OneDrive\Desktop\RSTP\backend\HLS_STREAMS\stream_02380e13\index.m3u8':
  Metadata:
    title           : redbutton.stream
    encoder         : Lavf61.7.100
  Stream #0:0: Video: h264, yuv420p(tv, progressive), 352x240 [SAR 1:1 DAR 22:15], q=2-31, 15 fps, 90k tbn
      Metadata:
        encoder         : Lavc61.19.101 libx264
      Side data:
        cpb: bitrate max/min/avg: 0/0/0 buffer size: 0 vbv_delay: N/A
frame=   23 fps=0.0 q=18.0 size=N/A time=00:00:01.53 bitrate=N/A speed=2.96x    [hls @ 0000018bac85e900] Opening 'C:\Users\athee\OneDrive\Desktop\RSTP\backend\HLS_STREAMS\stream_02380e13\seg_000.ts' for writing
[hls @ 0000018bac85e900] Opening 'C:\Users\athee\OneDrive\Desktop\RSTP\backend\HLS_STREAMS\stream_02380e13\index.m3u8.tmp' for writing
frame=   31 fps= 30 q=16.0 size=N/A time=00:00:02.06 bitrate=N/A speed=1.99x    frame=   38 fps= 24 q=18.0 size=N/A time=00:00:02.53 bitrate=N/A speed=1.63x    frame=   46 fps= 22 q=17.0 size=N/A time=00:00:03.06 bitrate=N/A speed=1.48x    frame=   55 fps= 21 q=17.0 size=N/A time=00:00:03.66 bitrate=N/A speed=1.41x    [hls @ 0000018bac85e900] Opening 'C:\Users\athee\OneDrive\Desktop\RSTP\backend\HLS_STREAMS\stream_02380e13\seg_001.ts' for writing
[hls @ 0000018bac85e900] Opening 'C:\Users\athee\OneDrive\Desktop\RSTP\backend\HLS_STREAMS\stream_02380e13\index.m3u8.tmp' for writing
frame=   62 fps= 20 q=24.0 size=N/A time=00:00:04.13 bitrate=N/A speed=1.33x    frame=   70 fps= 19 q=18.0 size=N/A time=00:00:04.66 bitrate=N/A speed=1.28x    frame=   76 fps= 18 q=17.0 size=N/A time=00:00:05.06 bitrate=N/A speed=1.22x    frame=   84 fps= 18 q=17.0 size=N/A time=00:00:05.60 bitrate=N/A speed= 1.2x    frame=   90 fps= 17 q=17.0 size=N/A time=00:00:06.00 bitrate=N/A speed=1.16x    frame=   90 fps= 16 q=17.0 size=N/A time=00:00:06.00 bitrate=N/A speed=1.05x    [hls @ 0000018bac85e900] Opening 'C:\Users\athee\OneDrive\Desktop\RSTP\backend\HLS_STREAMS\stream_02380e13\seg_002.ts' for writing
[hls @ 0000018bac85e900] Opening 'C:\Users\athee\OneDrive\Desktop\RSTP\backend\HLS_STREAMS\stream_02380e13\index.m3u8.tmp' for writing
frame=  107 fps= 17 q=17.0 size=N/A time=00:00:07.13 bitrate=N/A dup=12 drop=0 speed=1.15x    frame=  115 fps= 17 q=17.0 size=N/A time=00:00:07.66 bitrate=N/A dup=12 drop=0 speed=1.14x    [hls @ 0000018bac85e900] Opening 'C:\Users\athee\OneDrive\Desktop\RSTP\backend\HLS_STREAMS\stream_02380e13\seg_003.ts' for writing
[hls @ 0000018bac85e900] Opening 'C:\Users\athee\OneDrive\Desktop\RSTP\backend\HLS_STREAMS\stream_02380e13\index.m3u8.tmp' for writing
frame=  124 fps= 17 q=21.0 size=N/A time=00:00:08.26 bitrate=N/A dup=12 drop=0 speed=1.14x    frame=  131 fps= 17 q=17.0 size=N/A time=00:00:08.73 bitrate=N/A dup=12 drop=0 speed=1.12x    frame=  139 fps= 17 q=18.0 size=N/A time=00:00:09.26 bitrate=N/A dup=12 drop=0 speed=1.12x    frame=  148 fps= 17 q=17.0 size=N/A time=00:00:09.73 bitrate=N/A dup=12 drop=0 speed=1.11x    [hls @ 0000018bac85e900] Opening 'C:\Users\athee\OneDrive\Desktop\RSTP\backend\HLS_STREAMS\stream_02380e13\seg_004.ts' for writing
[hls @ 0000018bac85e900] Opening 'C:\Users\athee\OneDrive\Desktop\RSTP\backend\HLS_STREAMS\stream_02380e13\index.m3u8.tmp' for writing
frame=  155 fps= 17 q=20.0 size=N/A time=00:00:10.33 bitrate=N/A dup=12 drop=0 speed=1.11x    frame=  163 fps= 17 q=17.0 size=N/A time=00:00:10.86 bitrate=N/A dup=12 drop=0 speed=1.11x    frame=  169 fps= 16 q=18.0 size=N/A time=00:00:11.26 bitrate=N/A dup=12 drop=0 speed=1.09x    frame=  178 fps= 16 q=17.0 size=N/A time=00:00:11.86 bitrate=N/A dup=12 drop=0 speed=1.09x    [hls @ 0000018bac85e900] Opening 'C:\Users\athee\OneDrive\Desktop\RSTP\backend\HLS_STREAMS\stream_02380e13\seg_005.ts' for writing
[hls @ 0000018bac85e900] Opening 'C:\Users\athee\OneDrive\Desktop\RSTP\backend\HLS_STREAMS\stream_02380e13\index.m3u8.tmp' for writing
frame=  184 fps= 16 q=21.0 size=N/A time=00:00:12.26 bitrate=N/A dup=12 drop=0 speed=1.08x    frame=  194 fps= 16 q=17.0 size=N/A time=00:00:12.93 bitrate=N/A dup=12 drop=0 speed=1.09x    frame=  202 fps= 16 q=18.0 size=N/A time=00:00:13.46 bitrate=N/A dup=12 drop=0 speed=1.08x    frame=  209 fps= 16 q=17.0 size=N/A time=00:00:13.93 bitrate=N/A dup=12 drop=0 speed=1.08x    [hls @ 0000018bac85e900] Opening 'C:\Users\athee\OneDrive\Desktop\RSTP\backend\HLS_STREAMS\stream_02380e13\seg_006.ts' for writing
[hls @ 0000018bac85e900] Opening 'C:\Users\athee\OneDrive\Desktop\RSTP\backend\HLS_STREAMS\stream_02380e13\index.m3u8.tmp' for writing
frame=  217 fps= 16 q=18.0 size=N/A time=00:00:14.46 bitrate=N/A dup=12 drop=0 speed=1.07x    frame=  224 fps= 16 q=18.0 size=N/A time=00:00:14.93 bitrate=N/A dup=12 drop=0 speed=1.07x    frame=  232 fps= 16 q=17.0 size=N/A time=00:00:15.46 bitrate=N/A dup=12 drop=0 speed=1.07x    frame=  240 fps= 16 q=19.0 size=N/A time=00:00:16.00 bitrate=N/A dup=12 drop=0 speed=1.07x    [hls @ 0000018bac85e900] Opening 'C:\Users\athee\OneDrive\Desktop\RSTP\backend\HLS_STREAMS\stream_02380e13\seg_007.ts' for writing
[hls @ 0000018bac85e900] Opening 'C:\Users\athee\OneDrive\Desktop\RSTP\backend\HLS_STREAMS\stream_02380e13\index.m3u8.tmp' for writing
frame=  248 fps= 16 q=19.0 size=N/A time=00:00:16.53 bitrate=N/A dup=12 drop=0 speed=1.06x    frame=  256 fps= 16 q=17.0 size=N/A time=00:00:17.06 bitrate=N/A dup=12 drop=0 speed=1.06x    frame=  263 fps= 16 q=18.0 size=N/A time=00:00:17.53 bitrate=N/A dup=12 drop=0 speed=1.06x    [hls @ 0000018bac85e900] Opening 'C:\Users\athee\OneDrive\Desktop\RSTP\backend\HLS_STREAMS\stream_02380e13\seg_008.ts' for writing
[hls @ 0000018bac85e900] Opening 'C:\Users\athee\OneDrive\Desktop\RSTP\backend\HLS_STREAMS\stream_02380e13\index.m3u8.tmp' for writing
frame=  271 fps= 16 q=15.0 size=N/A time=00:00:18.06 bitrate=N/A dup=12 drop=0 speed=1.06x    frame=  278 fps= 16 q=20.0 size=N/A time=00:00:18.53 bitrate=N/A dup=12 drop=0 speed=1.05x    frame=  287 fps= 16 q=17.0 size=N/A time=00:00:19.13 bitrate=N/A dup=12 drop=0 speed=1.06x    frame=  295 fps= 16 q=17.0 size=N/A time=00:00:19.66 bitrate=N/A dup=12 drop=0 speed=1.06x    [hls @ 0000018bac85e900] Opening 'C:\Users\athee\OneDrive\Desktop\RSTP\backend\HLS_STREAMS\stream_02380e13\seg_009.ts' for writing
[hls @ 0000018bac85e900] Opening 'C:\Users\athee\OneDrive\Desktop\RSTP\backend\HLS_STREAMS\stream_02380e13\index.m3u8.tmp' for writing
frame=  302 fps= 16 q=24.0 size=N/A time=00:00:20.13 bitrate=N/A dup=12 drop=0 speed=1.05x    frame=  310 fps= 16 q=18.0 size=N/A time=00:00:20.66 bitrate=N/A dup=12 drop=0 speed=1.05x    frame=  317 fps= 16 q=17.0 size=N/A time=00:00:21.13 bitrate=N/A dup=12 drop=0 speed=1.05x    frame=  325 fps= 16 q=18.0 size=N/A time=00:00:21.66 bitrate=N/A dup=12 drop=0 speed=1.05x    [hls @ 0000018bac85e900] Opening 'C:\Users\athee\OneDrive\Desktop\RSTP\backend\HLS_STREAMS\stream_02380e13\seg_010.ts' for writing
[hls @ 0000018bac85e900] Opening 'C:\Users\athee\OneDrive\Desktop\RSTP\backend\HLS_STREAMS\stream_02380e13\index.m3u8.tmp' for writing
frame=  332 fps= 16 q=24.0 size=N/A time=00:00:22.13 bitrate=N/A dup=12 drop=0 speed=1.04x    frame=  341 fps= 16 q=17.0 size=N/A time=00:00:22.73 bitrate=N/A dup=12 drop=0 speed=1.05x    frame=  349 fps= 16 q=18.0 size=N/A time=00:00:23.26 bitrate=N/A dup=12 drop=0 speed=1.05x    frame=  356 fps= 16 q=17.0 size=N/A time=00:00:23.73 bitrate=N/A dup=12 drop=0 speed=1.04x    [hls @ 0000018bac85e900] Opening 'C:\Users\athee\OneDrive\Desktop\RSTP\backend\HLS_STREAMS\stream_02380e13\seg_011.ts' for writing
[hls @ 0000018bac85e900] Opening 'C:\Users\athee\OneDrive\Desktop\RSTP\backend\HLS_STREAMS\stream_02380e13\index.m3u8.tmp' for writing
frame=  362 fps= 16 q=24.0 size=N/A time=00:00:24.13 bitrate=N/A dup=12 drop=0 speed=1.04x    frame=  371 fps= 16 q=20.0 size=N/A time=00:00:24.73 bitrate=N/A dup=12 drop=0 speed=1.04x    frame=  379 fps= 16 q=19.0 size=N/A time=00:00:25.26 bitrate=N/A dup=12 drop=0 speed=1.04x    frame=  386 fps= 16 q=18.0 size=N/A time=00:00:25.73 bitrate=N/A dup=12 drop=0 speed=1.04x    [hls @ 0000018bac85e900] Opening 'C:\Users\athee\OneDrive\Desktop\RSTP\backend\HLS_STREAMS\stream_02380e13\seg_012.ts' for writing
[hls @ 0000018bac85e900] Opening 'C:\Users\athee\OneDrive\Desktop\RSTP\backend\HLS_STREAMS\stream_02380e13\index.m3u8.tmp' for writing
frame=  394 fps= 16 q=21.0 size=N/A time=00:00:26.26 bitrate=N/A dup=12 drop=0 speed=1.04x    frame=  403 fps= 16 q=18.0 size=N/A time=00:00:26.86 bitrate=N/A dup=12 drop=0 speed=1.04x    frame=  409 fps= 16 q=19.0 size=N/A time=00:00:27.26 bitrate=N/A dup=12 drop=0 speed=1.03x    frame=  418 fps= 16 q=17.0 size=N/A time=00:00:27.86 bitrate=N/A dup=12 drop=0 speed=1.04x    [hls @ 0000018bac85e900] Opening 'C:\Users\athee\OneDrive\Desktop\RSTP\backend\HLS_STREAMS\stream_02380e13\seg_013.ts' for writing
[hls @ 0000018bac85e900] Opening 'C:\Users\athee\OneDrive\Desktop\RSTP\backend\HLS_STREAMS\stream_02380e13\index.m3u8.tmp' for writing
frame=  424 fps= 15 q=21.0 size=N/A time=00:00:28.26 bitrate=N/A dup=12 drop=0 speed=1.03x    frame=  434 fps= 16 q=17.0 size=N/A time=00:00:28.93 bitrate=N/A dup=12 drop=0 speed=1.04x    frame=  440 fps= 15 q=18.0 size=N/A time=00:00:29.33 bitrate=N/A dup=12 drop=0 speed=1.03x    frame=  449 fps= 16 q=17.0 size=N/A time=00:00:29.93 bitrate=N/A dup=12 drop=0 speed=1.03x    [hls @ 0000018bac85e900] Opening 'C:\Users\athee\OneDrive\Desktop\RSTP\backend\HLS_STREAMS\stream_02380e13\seg_014.ts' for writing
[hls @ 0000018bac85e900] Opening 'C:\Users\athee\OneDrive\Desktop\RSTP\backend\HLS_STREAMS\stream_02380e13\index.m3u8.tmp' for writing
frame=  457 fps= 16 q=18.0 size=N/A time=00:00:30.46 bitrate=N/A dup=12 drop=0 speed=1.03x    frame=  464 fps= 15 q=17.0 size=N/A time=00:00:30.93 bitrate=N/A dup=12 drop=0 speed=1.03x    frame=  472 fps= 15 q=18.0 size=N/A time=00:00:31.46 bitrate=N/A dup=12 drop=0 speed=1.03x    frame=  478 fps= 15 q=17.0 size=N/A time=00:00:31.86 bitrate=N/A dup=12 drop=0 speed=1.03x    [hls @ 0000018bac85e900] Opening 'C:\Users\athee\OneDrive\Desktop\RSTP\backend\HLS_STREAMS\stream_02380e13\seg_015.ts' for writing
[hls @ 0000018bac85e900] Opening 'C:\Users\athee\OneDrive\Desktop\RSTP\backend\HLS_STREAMS\stream_02380e13\index.m3u8.tmp' for writing
frame=  488 fps= 15 q=18.0 size=N/A time=00:00:32.53 bitrate=N/A dup=12 drop=0 speed=1.03x    frame=  496 fps= 15 q=17.0 size=N/A time=00:00:33.06 bitrate=N/A dup=12 drop=0 speed=1.03x    frame=  503 fps= 15 q=18.0 size=N/A time=00:00:33.53 bitrate=N/A dup=12 drop=0 speed=1.03x    [hls @ 0000018bac85e900] Opening 'C:\Users\athee\OneDrive\Desktop\RSTP\backend\HLS_STREAMS\stream_02380e13\seg_016.ts' for writing
[hls @ 0000018bac85e900] Opening 'C:\Users\athee\OneDrive\Desktop\RSTP\backend\HLS_STREAMS\stream_02380e13\index.m3u8.tmp' for writing
frame=  511 fps= 15 q=15.0 size=N/A time=00:00:34.06 bitrate=N/A dup=12 drop=0 speed=1.03x    frame=  518 fps= 15 q=18.0 size=N/A time=00:00:34.53 bitrate=N/A dup=12 drop=0 speed=1.03x    frame=  526 fps= 15 q=17.0 size=N/A time=00:00:35.06 bitrate=N/A dup=12 drop=0 speed=1.03x    frame=  533 fps= 15 q=17.0 size=N/A time=00:00:35.53 bitrate=N/A dup=12 drop=0 speed=1.03x    [hls @ 0000018bac85e900] Opening 'C:\Users\athee\OneDrive\Desktop\RSTP\backend\HLS_STREAMS\stream_02380e13\seg_017.ts' for writing
[hls @ 0000018bac85e900] Opening 'C:\Users\athee\OneDrive\Desktop\RSTP\backend\HLS_STREAMS\stream_02380e13\index.m3u8.tmp' for writing
frame=  541 fps= 15 q=15.0 size=N/A time=00:00:36.06 bitrate=N/A dup=12 drop=0 speed=1.03x    frame=  548 fps= 15 q=18.0 size=N/A time=00:00:36.53 bitrate=N/A dup=12 drop=0 speed=1.02x    frame=  557 fps= 15 q=17.0 size=N/A time=00:00:37.13 bitrate=N/A dup=12 drop=0 speed=1.03x    frame=  565 fps= 15 q=17.0 size=N/A time=00:00:37.66 bitrate=N/A dup=12 drop=0 speed=1.03x    [hls @ 0000018bac85e900] Opening 'C:\Users\athee\OneDrive\Desktop\RSTP\backend\HLS_STREAMS\stream_02380e13\seg_018.ts' for writing
[hls @ 0000018bac85e900] Opening 'C:\Users\athee\OneDrive\Desktop\RSTP\backend\HLS_STREAMS\stream_02380e13\index.m3u8.tmp' for writing
frame=  572 fps= 15 q=24.0 size=N/A time=00:00:38.13 bitrate=N/A dup=12 drop=0 speed=1.02x    frame=  581 fps= 15 q=17.0 size=N/A time=00:00:38.73 bitrate=N/A dup=12 drop=0 speed=1.03x    frame=  589 fps= 15 q=18.0 size=N/A time=00:00:39.26 bitrate=N/A dup=12 drop=0 speed=1.03x    frame=  596 fps= 15 q=17.0 size=N/A time=00:00:39.73 bitrate=N/A dup=12 drop=0 speed=1.02x    [hls @ 0000018bac85e900] Opening 'C:\Users\athee\OneDrive\Desktop\RSTP\backend\HLS_STREAMS\stream_02380e13\seg_019.ts' for writing
[hls @ 0000018bac85e900] Opening 'C:\Users\athee\OneDrive\Desktop\RSTP\backend\HLS_STREAMS\stream_02380e13\index.m3u8.tmp' for writing
frame=  604 fps= 15 q=21.0 size=N/A time=00:00:40.26 bitrate=N/A dup=12 drop=0 speed=1.02x    frame=  610 fps= 15 q=18.0 size=N/A time=00:00:40.66 bitrate=N/A dup=12 drop=0 speed=1.02x    frame=  619 fps= 15 q=18.0 size=N/A time=00:00:41.26 bitrate=N/A dup=12 drop=0 speed=1.02x    frame=  627 fps= 15 q=17.0 size=N/A time=00:00:41.80 bitrate=N/A dup=12 drop=0 speed=1.02x    [hls @ 0000018bac85e900] Opening 'C:\Users\athee\OneDrive\Desktop\RSTP\backend\HLS_STREAMS\stream_02380e13\seg_020.ts' for writing
[hls @ 0000018bac85e900] Opening 'C:\Users\athee\OneDrive\Desktop\RSTP\backend\HLS_STREAMS\stream_02380e13\index.m3u8.tmp' for writing
frame=  635 fps= 15 q=20.0 size=N/A time=00:00:42.33 bitrate=N/A dup=12 drop=0 speed=1.02x    frame=  643 fps= 15 q=17.0 size=N/A time=00:00:42.86 bitrate=N/A dup=12 drop=0 speed=1.02x    frame=  649 fps= 15 q=19.0 size=N/A time=00:00:43.26 bitrate=N/A dup=12 drop=0 speed=1.02x    frame=  658 fps= 15 q=17.0 size=N/A time=00:00:43.86 bitrate=N/A dup=12 drop=0 speed=1.02x    [hls @ 0000018bac85e900] Opening 'C:\Users\athee\OneDrive\Desktop\RSTP\backend\HLS_STREAMS\stream_02380e13\seg_021.ts' for writing
[hls @ 0000018bac85e900] Opening 'C:\Users\athee\OneDrive\Desktop\RSTP\backend\HLS_STREAMS\stream_02380e13\index.m3u8.tmp' for writing
frame=  667 fps= 15 q=18.0 size=N/A time=00:00:44.46 bitrate=N/A dup=12 drop=0 speed=1.02x    frame=  674 fps= 15 q=18.0 size=N/A time=00:00:44.93 bitrate=N/A dup=12 drop=0 speed=1.02x    frame=  682 fps= 15 q=17.0 size=N/A time=00:00:45.46 bitrate=N/A dup=12 drop=0 speed=1.02x    frame=  689 fps= 15 q=17.0 size=N/A time=00:00:45.93 bitrate=N/A dup=12 drop=0 speed=1.02x    [hls @ 0000018bac85e900] Opening 'C:\Users\athee\OneDrive\Desktop\RSTP\backend\HLS_STREAMS\stream_02380e13\seg_022.ts' for writing
[hls @ 0000018bac85e900] Opening 'C:\Users\athee\OneDrive\Desktop\RSTP\backend\HLS_STREAMS\stream_02380e13\index.m3u8.tmp' for writing
frame=  696 fps= 15 q=19.0 size=N/A time=00:00:46.40 bitrate=N/A dup=12 drop=0 speed=1.02x    frame=  704 fps= 15 q=18.0 size=N/A time=00:00:46.93 bitrate=N/A dup=12 drop=0 speed=1.02x    frame=  712 fps= 15 q=18.0 size=N/A time=00:00:47.46 bitrate=N/A dup=12 drop=0 speed=1.02x    frame=  720 fps= 15 q=19.0 size=N/A time=00:00:47.93 bitrate=N/A dup=12 drop=0 speed=1.02x    [hls @ 0000018bac85e900] Opening 'C:\Users\athee\OneDrive\Desktop\RSTP\backend\HLS_STREAMS\stream_02380e13\seg_023.ts' for writing
[hls @ 0000018bac85e900] Opening 'C:\Users\athee\OneDrive\Desktop\RSTP\backend\HLS_STREAMS\stream_02380e13\index.m3u8.tmp' for writing
frame=  728 fps= 15 q=18.0 size=N/A time=00:00:48.53 bitrate=N/A dup=12 drop=0 speed=1.02x    frame=  736 fps= 15 q=17.0 size=N/A time=00:00:49.06 bitrate=N/A dup=12 drop=0 speed=1.02x    frame=  743 fps= 15 q=18.0 size=N/A time=00:00:49.53 bitrate=N/A dup=12 drop=0 speed=1.02x    frame=  750 fps= 15 q=19.0 size=N/A time=00:00:50.00 bitrate=N/A dup=12 drop=0 speed=1.02x    [hls @ 0000018bac85e900] Opening 'C:\Users\athee\OneDrive\Desktop\RSTP\backend\HLS_STREAMS\stream_02380e13\seg_024.ts' for writing
[hls @ 0000018bac85e900] Opening 'C:\Users\athee\OneDrive\Desktop\RSTP\backend\HLS_STREAMS\stream_02380e13\index.m3u8.tmp' for writing
frame=  759 fps= 15 q=18.0 size=N/A time=00:00:50.60 bitrate=N/A dup=12 drop=0 speed=1.02x    frame=  767 fps= 15 q=18.0 size=N/A time=00:00:51.13 bitrate=N/A dup=12 drop=0 speed=1.02x    frame=  774 fps= 15 q=19.0 size=N/A time=00:00:51.60 bitrate=N/A dup=12 drop=0 speed=1.02x    [hls @ 0000018bac85e900] Opening 'C:\Users\athee\OneDrive\Desktop\RSTP\backend\HLS_STREAMS\stream_02380e13\seg_025.ts' for writing
[hls @ 0000018bac85e900] Opening 'C:\Users\athee\OneDrive\Desktop\RSTP\backend\HLS_STREAMS\stream_02380e13\index.m3u8.tmp' for writing
frame=  782 fps= 15 q=24.0 size=N/A time=00:00:52.13 bitrate=N/A dup=12 drop=0 speed=1.02x    frame=  791 fps= 15 q=17.0 size=N/A time=00:00:52.73 bitrate=N/A dup=12 drop=0 speed=1.02x    frame=  798 fps= 15 q=17.0 size=N/A time=00:00:53.20 bitrate=N/A dup=12 drop=0 speed=1.02x    frame=  806 fps= 15 q=17.0 size=N/A time=00:00:53.73 bitrate=N/A dup=12 drop=0 speed=1.02x    [hls @ 0000018bac85e900] Opening 'C:\Users\athee\OneDrive\Desktop\RSTP\backend\HLS_STREAMS\stream_02380e13\seg_026.ts' for writing
[hls @ 0000018bac85e900] Opening 'C:\Users\athee\OneDrive\Desktop\RSTP\backend\HLS_STREAMS\stream_02380e13\index.m3u8.tmp' for writing
frame=  813 fps= 15 q=22.0 size=N/A time=00:00:54.20 bitrate=N/A dup=12 drop=0 speed=1.02x    frame=  821 fps= 15 q=18.0 size=N/A time=00:00:54.73 bitrate=N/A dup=12 drop=0 speed=1.02x    frame=  828 fps= 15 q=17.0 size=N/A time=00:00:55.20 bitrate=N/A dup=12 drop=0 speed=1.02x    frame=  837 fps= 15 q=17.0 size=N/A time=00:00:55.73 bitrate=N/A dup=12 drop=0 speed=1.02x    [hls @ 0000018bac85e900] Opening 'C:\Users\athee\OneDrive\Desktop\RSTP\backend\HLS_STREAMS\stream_02380e13\seg_027.ts' for writing
[hls @ 0000018bac85e900] Opening 'C:\Users\athee\OneDrive\Desktop\RSTP\backend\HLS_STREAMS\stream_02380e13\index.m3u8.tmp' for writing
frame=  845 fps= 15 q=20.0 size=N/A time=00:00:56.33 bitrate=N/A dup=12 drop=0 speed=1.02x    frame=  852 fps= 15 q=17.0 size=N/A time=00:00:56.80 bitrate=N/A dup=12 drop=0 speed=1.02x    frame=  860 fps= 15 q=18.0 size=N/A time=00:00:57.33 bitrate=N/A dup=12 drop=0 speed=1.02x    frame=  867 fps= 15 q=21.0 size=N/A time=00:00:57.80 bitrate=N/A dup=12 drop=0 speed=1.02x    [hls @ 0000018bac85e900] Opening 'C:\Users\athee\OneDrive\Desktop\RSTP\backend\HLS_STREAMS\stream_02380e13\seg_028.ts' for writing
[hls @ 0000018bac85e900] Opening 'C:\Users\athee\OneDrive\Desktop\RSTP\backend\HLS_STREAMS\stream_02380e13\index.m3u8.tmp' for writing
frame=  874 fps= 15 q=21.0 size=N/A time=00:00:58.26 bitrate=N/A dup=12 drop=0 speed=1.01x    frame=  883 fps= 15 q=17.0 size=N/A time=00:00:58.86 bitrate=N/A dup=12 drop=0 speed=1.02x    frame=  889 fps= 15 q=18.0 size=N/A time=00:00:59.26 bitrate=N/A dup=12 drop=0 speed=1.01x    frame=  899 fps= 15 q=17.0 size=N/A time=00:00:59.93 bitrate=N/A dup=12 drop=0 speed=1.02x    [hls @ 0000018bac85e900] Opening 'C:\Users\athee\OneDrive\Desktop\RSTP\backend\HLS_STREAMS\stream_02380e13\seg_029.ts' for writing
[hls @ 0000018bac85e900] Opening 'C:\Users\athee\OneDrive\Desktop\RSTP\backend\HLS_STREAMS\stream_02380e13\index.m3u8.tmp' for writing
frame=  906 fps= 15 q=19.0 size=N/A time=00:01:00.40 bitrate=N/A dup=12 drop=0 speed=1.02x    frame=  914 fps= 15 q=17.0 size=N/A time=00:01:00.93 bitrate=N/A dup=12 drop=0 speed=1.02x    frame=  923 fps= 15 q=19.0 size=N/A time=00:01:01.53 bitrate=N/A dup=12 drop=0 speed=1.02x    frame=  930 fps= 15 q=19.0 size=N/A time=00:01:02.00 bitrate=N/A dup=12 drop=0 speed=1.02x    [hls @ 0000018bac85e900] Opening 'C:\Users\athee\OneDrive\Desktop\RSTP\backend\HLS_STREAMS\stream_02380e13\seg_030.ts' for writing
[hls @ 0000018bac85e900] Opening 'C:\Users\athee\OneDrive\Desktop\RSTP\backend\HLS_STREAMS\stream_02380e13\index.m3u8.tmp' for writing
frame=  938 fps= 15 q=19.0 size=N/A time=00:01:02.53 bitrate=N/A dup=12 drop=0 speed=1.02x    frame=  945 fps= 15 q=17.0 size=N/A time=00:01:03.00 bitrate=N/A dup=12 drop=0 speed=1.01x    frame=  953 fps= 15 q=17.0 size=N/A time=00:01:03.53 bitrate=N/A dup=12 drop=0 speed=1.02x    frame=  960 fps= 15 q=19.0 size=N/A time=00:01:04.00 bitrate=N/A dup=12 drop=0 speed=1.01x    [hls @ 0000018bac85e900] Opening 'C:\Users\athee\OneDrive\Desktop\RSTP\backend\HLS_STREAMS\stream_02380e13\seg_031.ts' for writing
[hls @ 0000018bac85e900] Opening 'C:\Users\athee\OneDrive\Desktop\RSTP\backend\HLS_STREAMS\stream_02380e13\index.m3u8.tmp' for writing
frame=  969 fps= 15 q=17.0 size=N/A time=00:01:04.60 bitrate=N/A dup=12 drop=0 speed=1.02x    frame=  977 fps= 15 q=17.0 size=N/A time=00:01:05.13 bitrate=N/A dup=12 drop=0 speed=1.02x    frame=  984 fps= 15 q=17.0 size=N/A time=00:01:05.60 bitrate=N/A dup=12 drop=0 speed=1.01x    [hls @ 0000018bac85e900] Opening 'C:\Users\athee\OneDrive\Desktop\RSTP\backend\HLS_STREAMS\stream_02380e13\seg_032.ts' for writing
[hls @ 0000018bac85e900] Opening 'C:\Users\athee\OneDrive\Desktop\RSTP\backend\HLS_STREAMS\stream_02380e13\index.m3u8.tmp' for writing
frame=  992 fps= 15 q=24.0 size=N/A time=00:01:06.13 bitrate=N/A dup=12 drop=0 speed=1.01x    frame=  998 fps= 15 q=18.0 size=N/A time=00:01:06.53 bitrate=N/A dup=12 drop=0 speed=1.01x    frame= 1007 fps= 15 q=17.0 size=N/A time=00:01:07.13 bitrate=N/A dup=12 drop=0 speed=1.01x    frame= 1014 fps= 15 q=17.0 size=N/A time=00:01:07.60 bitrate=N/A dup=12 drop=0 speed=1.01x    [hls @ 0000018bac85e900] Opening 'C:\Users\athee\OneDrive\Desktop\RSTP\backend\HLS_STREAMS\stream_02380e13\seg_033.ts' for writing
[hls @ 0000018bac85e900] Opening 'C:\Users\athee\OneDrive\Desktop\RSTP\backend\HLS_STREAMS\stream_02380e13\index.m3u8.tmp' for writing
frame= 1023 fps= 15 q=22.0 size=N/A time=00:01:08.20 bitrate=N/A dup=12 drop=0 speed=1.01x    frame= 1031 fps= 15 q=18.0 size=N/A time=00:01:08.73 bitrate=N/A dup=12 drop=0 speed=1.01x    frame= 1038 fps= 15 q=17.0 size=N/A time=00:01:09.20 bitrate=N/A dup=12 drop=0 speed=1.01x    frame= 1046 fps= 15 q=19.0 size=N/A time=00:01:09.73 bitrate=N/A dup=12 drop=0 speed=1.01x    [hls @ 0000018bac85e900] Opening 'C:\Users\athee\OneDrive\Desktop\RSTP\backend\HLS_STREAMS\stream_02380e13\seg_034.ts' for writing
[hls @ 0000018bac85e900] Opening 'C:\Users\athee\OneDrive\Desktop\RSTP\backend\HLS_STREAMS\stream_02380e13\index.m3u8.tmp' for writing
frame= 1053 fps= 15 q=22.0 size=N/A time=00:01:10.20 bitrate=N/A dup=12 drop=0 speed=1.01x    frame= 1061 fps= 15 q=17.0 size=N/A time=00:01:10.73 bitrate=N/A dup=12 drop=0 speed=1.01x    frame= 1070 fps= 15 q=18.0 size=N/A time=00:01:11.33 bitrate=N/A dup=12 drop=0 speed=1.01x    frame= 1077 fps= 15 q=18.0 size=N/A time=00:01:11.80 bitrate=N/A dup=12 drop=0 speed=1.01x    [hls @ 0000018bac85e900] Opening 'C:\Users\athee\OneDrive\Desktop\RSTP\backend\HLS_STREAMS\stream_02380e13\seg_035.ts' for writing
[hls @ 0000018bac85e900] Opening 'C:\Users\athee\OneDrive\Desktop\RSTP\backend\HLS_STREAMS\stream_02380e13\index.m3u8.tmp' for writing
frame= 1083 fps= 15 q=22.0 size=N/A time=00:01:12.20 bitrate=N/A dup=12 drop=0 speed=1.01x    frame= 1092 fps= 15 q=17.0 size=N/A time=00:01:12.80 bitrate=N/A dup=12 drop=0 speed=1.01x    frame= 1098 fps= 15 q=17.0 size=N/A time=00:01:13.20 bitrate=N/A dup=12 drop=0 speed=1.01x    frame= 1107 fps= 15 q=17.0 size=N/A time=00:01:13.80 bitrate=N/A dup=12 drop=0 speed=1.01x    [hls @ 0000018bac85e900] Opening 'C:\Users\athee\OneDrive\Desktop\RSTP\backend\HLS_STREAMS\stream_02380e13\seg_036.ts' for writing
[hls @ 0000018bac85e900] Opening 'C:\Users\athee\OneDrive\Desktop\RSTP\backend\HLS_STREAMS\stream_02380e13\index.m3u8.tmp' for writing
frame= 1113 fps= 15 q=22.0 size=N/A time=00:01:14.20 bitrate=N/A dup=12 drop=0 speed=1.01x    frame= 1125 fps= 15 q=17.0 size=N/A time=00:01:15.00 bitrate=N/A dup=12 drop=0 speed=1.01x    frame= 1132 fps= 15 q=18.0 size=N/A time=00:01:15.46 bitrate=N/A dup=12 drop=0 speed=1.01x    frame= 1138 fps= 15 q=17.0 size=N/A time=00:01:15.86 bitrate=N/A dup=12 drop=0 speed=1.01x    [hls @ 0000018bac85e900] Opening 'C:\Users\athee\OneDrive\Desktop\RSTP\backend\HLS_STREAMS\stream_02380e13\seg_037.ts' for writing
[hls @ 0000018bac85e900] Opening 'C:\Users\athee\OneDrive\Desktop\RSTP\backend\HLS_STREAMS\stream_02380e13\index.m3u8.tmp' for writing
frame= 1147 fps= 15 q=18.0 size=N/A time=00:01:16.46 bitrate=N/A dup=12 drop=0 speed=1.01x    frame= 1156 fps= 15 q=19.0 size=N/A time=00:01:17.06 bitrate=N/A dup=12 drop=0 speed=1.01x    frame= 1164 fps= 15 q=18.0 size=N/A time=00:01:17.60 bitrate=N/A dup=12 drop=0 speed=1.01x    [hls @ 0000018bac85e900] Opening 'C:\Users\athee\OneDrive\Desktop\RSTP\backend\HLS_STREAMS\stream_02380e13\seg_038.ts' for writing
[hls @ 0000018bac85e900] Opening 'C:\Users\athee\OneDrive\Desktop\RSTP\backend\HLS_STREAMS\stream_02380e13\index.m3u8.tmp' for writing
frame= 1171 fps= 15 q=15.0 size=N/A time=00:01:18.06 bitrate=N/A dup=12 drop=0 speed=1.01x    frame= 1179 fps= 15 q=19.0 size=N/A time=00:01:18.60 bitrate=N/A dup=12 drop=0 speed=1.01x    frame= 1186 fps= 15 q=18.0 size=N/A time=00:01:19.06 bitrate=N/A dup=12 drop=0 speed=1.01x    frame= 1194 fps= 15 q=18.0 size=N/A time=00:01:19.60 bitrate=N/A dup=12 drop=0 speed=1.01x    [hls @ 0000018bac85e900] Opening 'C:\Users\athee\OneDrive\Desktop\RSTP\backend\HLS_STREAMS\stream_02380e13\seg_039.ts' for writing
[hls @ 0000018bac85e900] Opening 'C:\Users\athee\OneDrive\Desktop\RSTP\backend\HLS_STREAMS\stream_02380e13\index.m3u8.tmp' for writing
frame= 1203 fps= 15 q=22.0 size=N/A time=00:01:20.20 bitrate=N/A dup=12 drop=0 speed=1.01x    frame= 1210 fps= 15 q=18.0 size=N/A time=00:01:20.66 bitrate=N/A dup=12 drop=0 speed=1.01x    frame= 1218 fps= 15 q=17.0 size=N/A time=00:01:21.20 bitrate=N/A dup=12 drop=0 speed=1.01x    frame= 1225 fps= 15 q=18.0 size=N/A time=00:01:21.66 bitrate=N/A dup=12 drop=0 speed=1.01x    [hls @ 0000018bac85e900] Opening 'C:\Users\athee\OneDrive\Desktop\RSTP\backend\HLS_STREAMS\stream_02380e13\seg_040.ts' for writing
[hls @ 0000018bac85e900] Opening 'C:\Users\athee\OneDrive\Desktop\RSTP\backend\HLS_STREAMS\stream_02380e13\index.m3u8.tmp' for writing
frame= 1233 fps= 15 q=22.0 size=N/A time=00:01:22.20 bitrate=N/A dup=12 drop=0 speed=1.01x    frame= 1240 fps= 15 q=18.0 size=N/A time=00:01:22.66 bitrate=N/A dup=12 drop=0 speed=1.01x    frame= 1248 fps= 15 q=19.0 size=N/A time=00:01:23.20 bitrate=N/A dup=12 drop=0 speed=1.01x    frame= 1255 fps= 15 q=18.0 size=N/A time=00:01:23.66 bitrate=N/A dup=12 drop=0 speed=1.01x    [hls @ 0000018bac85e900] Opening 'C:\Users\athee\OneDrive\Desktop\RSTP\backend\HLS_STREAMS\stream_02380e13\seg_041.ts' for writing
[hls @ 0000018bac85e900] Opening 'C:\Users\athee\OneDrive\Desktop\RSTP\backend\HLS_STREAMS\stream_02380e13\index.m3u8.tmp' for writing
frame= 1264 fps= 15 q=20.0 size=N/A time=00:01:24.26 bitrate=N/A dup=12 drop=0 speed=1.01x    frame= 1272 fps= 15 q=17.0 size=N/A time=00:01:24.80 bitrate=N/A dup=12 drop=0 speed=1.01x    frame= 1279 fps= 15 q=17.0 size=N/A time=00:01:25.26 bitrate=N/A dup=12 drop=0 speed=1.01x    frame= 1287 fps= 15 q=19.0 size=N/A time=00:01:25.80 bitrate=N/A dup=12 drop=0 speed=1.01x    [hls @ 0000018bac85e900] Opening 'C:\Users\athee\OneDrive\Desktop\RSTP\backend\HLS_STREAMS\stream_02380e13\seg_042.ts' for writing
[hls @ 0000018bac85e900] Opening 'C:\Users\athee\OneDrive\Desktop\RSTP\backend\HLS_STREAMS\stream_02380e13\index.m3u8.tmp' for writing
frame= 1294 fps= 15 q=21.0 size=N/A time=00:01:26.26 bitrate=N/A dup=12 drop=0 speed=1.01x    frame= 1303 fps= 15 q=18.0 size=N/A time=00:01:26.86 bitrate=N/A dup=12 drop=0 speed=1.01x    frame= 1311 fps= 15 q=18.0 size=N/A time=00:01:27.40 bitrate=N/A dup=12 drop=0 speed=1.01x    frame= 1318 fps= 15 q=17.0 size=N/A time=00:01:27.86 bitrate=N/A dup=12 drop=0 speed=1.01x    [hls @ 0000018bac85e900] Opening 'C:\Users\athee\OneDrive\Desktop\RSTP\backend\HLS_STREAMS\stream_02380e13\seg_043.ts' for writing
[hls @ 0000018bac85e900] Opening 'C:\Users\athee\OneDrive\Desktop\RSTP\backend\HLS_STREAMS\stream_02380e13\index.m3u8.tmp' for writing
frame= 1325 fps= 15 q=20.0 size=N/A time=00:01:28.33 bitrate=N/A dup=12 drop=0 speed=1.01x    frame= 1333 fps= 15 q=17.0 size=N/A time=00:01:28.86 bitrate=N/A dup=12 drop=0 speed=1.01x    frame= 1341 fps= 15 q=18.0 size=N/A time=00:01:29.40 bitrate=N/A dup=12 drop=0 speed=1.01x    frame= 1349 fps= 15 q=17.0 size=N/A time=00:01:29.93 bitrate=N/A dup=12 drop=0 speed=1.01x    [hls @ 0000018bac85e900] Opening 'C:\Users\athee\OneDrive\Desktop\RSTP\backend\HLS_STREAMS\stream_02380e13\seg_044.ts' for writing
[hls @ 0000018bac85e900] Opening 'C:\Users\athee\OneDrive\Desktop\RSTP\backend\HLS_STREAMS\stream_02380e13\index.m3u8.tmp' for writing
frame= 1357 fps= 15 q=19.0 size=N/A time=00:01:30.46 bitrate=N/A dup=12 drop=0 speed=1.01x    frame= 1364 fps= 15 q=18.0 size=N/A time=00:01:30.93 bitrate=N/A dup=12 drop=0 speed=1.01x    frame= 1372 fps= 15 q=18.0 size=N/A time=00:01:31.46 bitrate=N/A dup=12 drop=0 speed=1.01x    frame= 1380 fps= 15 q=19.0 size=N/A time=00:01:32.00 bitrate=N/A dup=12 drop=0 speed=1.01x    [hls @ 0000018bac85e900] Opening 'C:\Users\athee\OneDrive\Desktop\RSTP\backend\HLS_STREAMS\stream_02380e13\seg_045.ts' for writing
[hls @ 0000018bac85e900] Opening 'C:\Users\athee\OneDrive\Desktop\RSTP\backend\HLS_STREAMS\stream_02380e13\index.m3u8.tmp' for writing
frame= 1388 fps= 15 q=18.0 size=N/A time=00:01:32.53 bitrate=N/A dup=12 drop=0 speed=1.01x    frame= 1396 fps= 15 q=17.0 size=N/A time=00:01:33.06 bitrate=N/A dup=12 drop=0 speed=1.01x    frame= 1403 fps= 15 q=17.0 size=N/A time=00:01:33.53 bitrate=N/A dup=12 drop=0 speed=1.01x    [hls @ 0000018bac85e900] Opening 'C:\Users\athee\OneDrive\Desktop\RSTP\backend\HLS_STREAMS\stream_02380e13\seg_046.ts' for writing
[hls @ 0000018bac85e900] Opening 'C:\Users\athee\OneDrive\Desktop\RSTP\backend\HLS_STREAMS\stream_02380e13\index.m3u8.tmp' for writing
frame= 1411 fps= 15 q=15.0 size=N/A time=00:01:34.06 bitrate=N/A dup=12 drop=0 speed=1.01x    frame= 1418 fps= 15 q=18.0 size=N/A time=00:01:34.53 bitrate=N/A dup=12 drop=0 speed=1.01x    frame= 1426 fps= 15 q=17.0 size=N/A time=00:01:35.06 bitrate=N/A dup=12 drop=0 speed=1.01x    frame= 1433 fps= 15 q=18.0 size=N/A time=00:01:35.53 bitrate=N/A dup=12 drop=0 speed=1.01x    [hls @ 0000018bac85e900] Opening 'C:\Users\athee\OneDrive\Desktop\RSTP\backend\HLS_STREAMS\stream_02380e13\seg_047.ts' for writing
[hls @ 0000018bac85e900] Opening 'C:\Users\athee\OneDrive\Desktop\RSTP\backend\HLS_STREAMS\stream_02380e13\index.m3u8.tmp' for writing
frame= 1442 fps= 15 q=24.0 size=N/A time=00:01:36.13 bitrate=N/A dup=12 drop=0 speed=1.01x    frame= 1450 fps= 15 q=18.0 size=N/A time=00:01:36.66 bitrate=N/A dup=12 drop=0 speed=1.01x    frame= 1457 fps= 15 q=17.0 size=N/A time=00:01:37.13 bitrate=N/A dup=12 drop=0 speed=1.01x    frame= 1465 fps= 15 q=18.0 size=N/A time=00:01:37.66 bitrate=N/A dup=12 drop=0 speed=1.01x    [hls @ 0000018bac85e900] Opening 'C:\Users\athee\OneDrive\Desktop\RSTP\backend\HLS_STREAMS\stream_02380e13\seg_048.ts' for writing
[hls @ 0000018bac85e900] Opening 'C:\Users\athee\OneDrive\Desktop\RSTP\backend\HLS_STREAMS\stream_02380e13\index.m3u8.tmp' for writing
frame= 1472 fps= 15 q=24.0 size=N/A time=00:01:38.13 bitrate=N/A dup=12 drop=0 speed=1.01x    frame= 1480 fps= 15 q=18.0 size=N/A time=00:01:38.66 bitrate=N/A dup=12 drop=0 speed=1.01x    